<?xml version="1.0" standalone="no"?><!DOCTYPE svg PUBLIC "-//W3C//DTD SVG 1.1//EN" "http://www.w3.org/Graphics/SVG/1.1/DTD/svg11.dtd"><svg t="1541120183907" class="icon" style="" viewBox="0 0 1024 1024" version="1.1" xmlns="http://www.w3.org/2000/svg" p-id="1430" xmlns:xlink="http://www.w3.org/1999/xlink" width="200" height="200"><defs><style type="text/css"></style></defs><path d="M292.8 960c-49.6 0-90.4-40.8-90.4-90.4V120.8c0-49.6 40.8-90.4 90.4-90.4H776c49.6 0 90.4 40.8 90.4 90.4v749.6c0 24-9.6 46.4-26.4 64-16.8 16.8-40 26.4-64 26.4H292.8z m-42.4-89.6c0 23.2 19.2 42.4 42.4 42.4H776c23.2 0 42.4-19.2 42.4-42.4V506.4h-568v364z m568-412V120.8c0-23.2-19.2-42.4-42.4-42.4H292.8c-23.2 0-42.4 19.2-42.4 42.4v337.6h568z" fill="" p-id="1431"></path><path d="M360.8 372.8c-13.6 0-24-10.4-24-24v-88c0-13.6 10.4-24 24-24s24 10.4 24 24v88c0 12.8-11.2 24-24 24zM360.8 726.4c-13.6 0-24-10.4-24-24v-88c0-13.6 10.4-24 24-24s24 10.4 24 24v88c0 12.8-11.2 24-24 24z" fill="" p-id="1432"></path></svg>